<svg width="1379" height="1379" viewBox="0 0 1379 1379" fill="none" xmlns="http://www.w3.org/2000/svg">
<path d="M1120 0C1263.04 1.24023e-05 1379 115.958 1379 259V1120C1379 1263.04 1263.04 1379 1120 1379H259C115.958 1379 1.29692e-06 1263.04 0 1120V259C1.24053e-05 115.958 115.958 1.29661e-06 259 0H1120ZM867.604 694.522C776.627 694.523 768.77 825.127 671.139 825.127C573.507 825.127 567.884 694.523 474.674 694.522V1170.06L671.139 1035.55L867.604 1170.06V694.522ZM891.047 694.522V966.336L1025 1060.66V754.522C1025 721.385 998.137 694.522 965 694.522H891.047ZM443.973 236.641C404.934 298.099 395.391 376.953 425.258 449.379C427.871 455.715 430.734 461.873 433.829 467.847C409.63 494.871 391.728 526.129 381.968 560.071C448.106 536.64 518.798 539.417 578.638 573.965C592.917 582.209 595.46 580.599 617.66 602.8C639.861 625.001 657.576 713.614 657.576 713.614C645.787 719.292 637.651 731.353 637.651 745.313C637.652 764.733 653.395 780.475 672.814 780.475C692.234 780.474 707.976 764.733 707.977 745.313C707.977 731.353 699.841 719.292 688.052 713.614C688.052 713.614 702.5 625.501 728.918 600.162C739.882 590.328 751.939 581.539 765.057 573.965C825.48 539.08 896.967 536.589 963.66 560.765C953.868 526.281 935.677 494.551 911.016 467.195C913.982 461.425 916.732 455.485 919.25 449.379C949.116 376.953 939.574 298.099 900.535 236.642C845.222 258.148 793.41 309.313 763.202 379.201C734.656 371.571 704.256 367.452 672.716 367.452C640.87 367.452 610.187 371.648 581.4 379.42C551.207 309.42 499.343 258.17 443.973 236.641ZM852.575 603.209C827.077 595.743 803.841 597.351 786.528 609.821C769.216 622.292 760.331 643.822 759.334 670.372C784.831 677.837 808.066 676.228 825.378 663.759C842.69 651.289 851.578 629.759 852.575 603.209ZM553.103 611.909C537.13 600.405 515.694 598.92 492.17 605.808C493.089 630.302 501.289 650.165 517.261 661.67C533.233 673.174 554.669 674.659 578.193 667.771C577.274 643.277 569.075 623.414 553.103 611.909Z" fill="#F6F6F3"/>
</svg>
