<svg width="1379" height="1379" viewBox="0 0 1379 1379" fill="none" xmlns="http://www.w3.org/2000/svg">
<rect width="1379" height="1379" rx="259" fill="#F6F6F3"/>
<path d="M474.674 694.523C567.884 694.523 573.507 825.127 671.139 825.127C768.771 825.127 776.627 694.523 867.604 694.523V1170.06L671.139 1035.55L474.674 1170.06V694.523Z" fill="#CB785C"/>
<path d="M891.047 694.522H965C998.138 694.522 1025 721.385 1025 754.522V1060.66L891.047 966.336V694.522Z" fill="#CB785C"/>
<path d="M492.17 605.808C515.694 598.92 537.131 600.405 553.103 611.91C569.075 623.414 577.274 643.277 578.194 667.772C554.67 674.659 533.233 673.175 517.261 661.671C501.289 650.166 493.089 630.303 492.17 605.808Z" fill="#CB785C"/>
<path d="M852.575 603.209C827.077 595.744 803.841 597.352 786.529 609.822C769.216 622.292 760.33 643.822 759.334 670.372C784.831 677.837 808.066 676.228 825.378 663.759C842.691 651.288 851.578 629.759 852.575 603.209Z" fill="#CB785C"/>
<path d="M443.973 236.641C500.587 258.654 553.535 311.737 583.402 384.164C586.506 391.691 589.285 399.245 591.747 406.802L435.596 471.195C431.818 464.181 428.361 456.906 425.258 449.379C395.391 376.953 404.934 298.099 443.973 236.641Z" fill="#CB785C"/>
<path d="M448.556 253.111C496.174 271.626 540.707 316.276 565.828 377.195C568.439 383.525 570.776 389.879 572.847 396.235L441.508 450.396C438.33 444.496 435.423 438.377 432.812 432.046C407.691 371.127 415.719 304.804 448.556 253.111Z" fill="#CB785C"/>
<path d="M900.535 236.641C843.921 258.654 790.974 311.737 761.106 384.165C758.003 391.692 755.224 399.247 752.762 406.804L908.911 471.196C912.69 464.182 916.146 456.906 919.25 449.38C949.117 376.953 939.574 298.099 900.535 236.641Z" fill="#CB785C"/>
<path d="M891.347 269.676C851.462 287.862 813.218 329.293 790.414 384.593C788.044 390.34 785.901 396.1 783.975 401.852L890.361 445.723C893.184 440.342 895.791 434.773 898.161 429.026C920.966 373.725 916.632 314.736 891.347 269.676Z" fill="#CB785C"/>
<path d="M672.716 367.452C813.859 367.452 932.172 449.88 963.66 560.764C896.967 536.589 825.48 539.079 765.057 573.965C751.939 581.538 739.883 590.328 728.918 600.162C702.5 625.5 688.052 713.614 688.052 713.614C699.841 719.291 707.977 731.352 707.977 745.313C707.976 764.733 692.234 780.475 672.814 780.475C653.395 780.475 637.652 764.733 637.651 745.313C637.651 731.353 645.787 719.291 657.576 713.614C657.576 713.614 639.861 625 617.66 602.8C595.459 580.599 592.917 582.209 578.638 573.965C518.798 539.416 448.106 536.64 381.968 560.071C413.751 449.536 531.866 367.452 672.716 367.452Z" fill="#CB785C"/>
</svg>
