<svg width="1379" height="1379" viewBox="0 0 1379 1379" fill="none" xmlns="http://www.w3.org/2000/svg">
<path d="M1120 0C1263.04 1.24023e-05 1379 115.958 1379 259V1120C1379 1263.04 1263.04 1379 1120 1379H259C115.958 1379 1.29692e-06 1263.04 0 1120V259C1.24053e-05 115.958 115.958 1.29661e-06 259 0H1120ZM867.604 694.523C776.628 694.523 768.771 825.128 671.139 825.128C573.507 825.128 567.884 694.523 474.674 694.523V1170.06L671.139 1035.55L867.604 1170.06V694.523ZM891.047 694.522V966.337L1025 1060.66V754.522C1025 721.385 998.137 694.522 965 694.522H891.047ZM900.535 236.642C845.223 258.148 793.41 309.314 763.202 379.201C734.656 371.571 704.256 367.453 672.716 367.453C640.87 367.453 610.186 371.649 581.4 379.421C551.207 309.421 499.343 258.171 443.973 236.642C404.934 298.1 395.391 376.954 425.258 449.38C427.871 455.716 430.735 461.874 433.829 467.848C409.63 494.871 391.727 526.129 381.968 560.071C448.106 536.64 518.798 539.417 578.638 573.965C592.917 582.209 605.936 591.895 617.66 602.8L657.576 713.614C645.787 719.292 637.651 731.353 637.651 745.313C637.652 764.733 653.395 780.477 672.814 780.477C692.234 780.476 707.976 764.733 707.977 745.313C707.977 731.353 699.841 719.292 688.052 713.614L728.918 600.162C739.882 590.328 751.939 581.539 765.057 573.965C825.48 539.08 896.967 536.589 963.66 560.765C953.868 526.282 935.677 494.552 911.017 467.196C913.982 461.427 916.732 455.486 919.25 449.38C949.117 376.954 939.574 298.099 900.535 236.642ZM573.935 599.207C562.647 591.077 547.498 590.028 530.874 594.896C531.524 612.205 537.318 626.242 548.605 634.372C559.892 642.502 575.041 643.551 591.664 638.684C591.014 621.374 585.222 607.337 573.935 599.207ZM814.922 594.896C798.298 590.029 783.149 591.077 771.862 599.207C760.575 607.337 754.781 621.374 754.131 638.684C770.754 643.551 785.904 642.502 797.19 634.372C808.477 626.242 814.272 612.206 814.922 594.896Z" fill="#e27b5b"/>
</svg>
