<svg width="1200" height="630" viewBox="0 0 1200 630" fill="none" xmlns="http://www.w3.org/2000/svg">
  <defs>
    <linearGradient id="bg" x1="0" y1="0" x2="1" y2="1">
      <stop offset="0%" stop-color="#fff6e6" />
      <stop offset="55%" stop-color="#ffe4c7" />
      <stop offset="100%" stop-color="#ffd2b0" />
    </linearGradient>
    <linearGradient id="card" x1="0" y1="0" x2="1" y2="1">
      <stop offset="0%" stop-color="#ffffff" stop-opacity="0.96" />
      <stop offset="100%" stop-color="#fff3e3" stop-opacity="0.92" />
    </linearGradient>
  </defs>

  <rect width="1200" height="630" fill="url(#bg)" />
  <circle cx="180" cy="140" r="120" fill="#ffd7b2" opacity="0.7" />
  <circle cx="1040" cy="90" r="160" fill="#ffcf9e" opacity="0.6" />
  <circle cx="1020" cy="520" r="180" fill="#ffe8d1" opacity="0.8" />

  <rect x="120" y="120" width="960" height="390" rx="48" fill="url(#card)" stroke="#f2caa4" stroke-width="2" />

  <rect x="180" y="180" width="64" height="64" rx="18" fill="#e27b5b" />
  <path d="M203 197h18c3 0 5 2 5 5v21c0 3-2 5-5 5h-18" stroke="#ffffff" stroke-width="4" stroke-linecap="round" />
  <path d="M209 210h18" stroke="#ffffff" stroke-width="4" stroke-linecap="round" />

  <text x="270" y="210" font-family="'Noto Sans TC', 'PingFang TC', 'Microsoft JhengHei', sans-serif" font-size="28" fill="#7a4c2f" font-weight="600">
    Kit
  </text>
  <text x="180" y="290" font-family="'Noto Sans TC', 'PingFang TC', 'Microsoft JhengHei', sans-serif" font-size="52" fill="#2b1c12" font-weight="700">
    服務推薦頁
  </text>
  <text x="180" y="350" font-family="'Noto Sans TC', 'PingFang TC', 'Microsoft JhengHei', sans-serif" font-size="26" fill="#5d4433" font-weight="500">
    把收藏整理成專業對外展示的內容
  </text>

  <rect x="180" y="400" width="250" height="56" rx="28" fill="#e27b5b" />
  <text x="205" y="437" font-family="'Noto Sans TC', 'PingFang TC', 'Microsoft JhengHei', sans-serif" font-size="22" fill="#ffffff" font-weight="600">
    立即開始
  </text>

  <rect x="470" y="400" width="280" height="56" rx="28" fill="#f4d3b3" />
  <text x="495" y="437" font-family="'Noto Sans TC', 'PingFang TC', 'Microsoft JhengHei', sans-serif" font-size="22" fill="#7a4c2f" font-weight="600">
    分享你的收藏
  </text>
</svg>
